<mxfile host="app.diagrams.net" modified="2022-03-10T13:26:16.456Z" agent="5.0 (X11)" etag="uD6VA-1nFlUto59_iKGg" version="16.6.2" type="github">
  <diagram id="avCvevipohTtXCMkCPLP" name="Page-1">
    <mxGraphModel dx="859" dy="-656" grid="1" gridSize="10" guides="1" tooltips="1" connect="1" arrows="1" fold="1" page="1" pageScale="1" pageWidth="850" pageHeight="1100" math="0" shadow="0">
      <root>
        <mxCell id="0" />
        <mxCell id="1" parent="0" />
        <mxCell id="OFwWGgui4uXcCdhCTcHJ-1" value="" style="rounded=0;whiteSpace=wrap;html=1;fontFamily=palatino;" parent="1" vertex="1">
          <mxGeometry x="40" y="1430" width="1070" height="110" as="geometry" />
        </mxCell>
        <mxCell id="OFwWGgui4uXcCdhCTcHJ-2" value="" style="rounded=0;whiteSpace=wrap;html=1;fontFamily=palatino;" parent="1" vertex="1">
          <mxGeometry x="40" y="1310" width="1070" height="110" as="geometry" />
        </mxCell>
        <mxCell id="OFwWGgui4uXcCdhCTcHJ-3" value="" style="rounded=0;whiteSpace=wrap;html=1;strokeWidth=1;fontFamily=palatino;" parent="1" vertex="1">
          <mxGeometry x="40" y="1190" width="1070" height="110" as="geometry" />
        </mxCell>
        <mxCell id="OFwWGgui4uXcCdhCTcHJ-4" value="" style="endArrow=none;html=1;rounded=0;strokeWidth=3;fontFamily=palatino;" parent="1" edge="1">
          <mxGeometry width="50" height="50" relative="1" as="geometry">
            <mxPoint x="140" y="1290" as="sourcePoint" />
            <mxPoint x="220" y="1290" as="targetPoint" />
          </mxGeometry>
        </mxCell>
        <mxCell id="OFwWGgui4uXcCdhCTcHJ-5" value="" style="endArrow=none;html=1;rounded=0;strokeWidth=3;fontFamily=palatino;" parent="1" edge="1">
          <mxGeometry width="50" height="50" relative="1" as="geometry">
            <mxPoint x="220" y="1290" as="sourcePoint" />
            <mxPoint x="220" y="1210" as="targetPoint" />
          </mxGeometry>
        </mxCell>
        <mxCell id="OFwWGgui4uXcCdhCTcHJ-6" value="" style="endArrow=none;html=1;rounded=0;strokeWidth=3;fontFamily=palatino;" parent="1" edge="1">
          <mxGeometry width="50" height="50" relative="1" as="geometry">
            <mxPoint x="220" y="1210" as="sourcePoint" />
            <mxPoint x="300" y="1210" as="targetPoint" />
          </mxGeometry>
        </mxCell>
        <mxCell id="OFwWGgui4uXcCdhCTcHJ-7" value="" style="endArrow=none;html=1;rounded=0;strokeWidth=3;fontFamily=palatino;" parent="1" edge="1">
          <mxGeometry width="50" height="50" relative="1" as="geometry">
            <mxPoint x="300" y="1290" as="sourcePoint" />
            <mxPoint x="300" y="1210" as="targetPoint" />
          </mxGeometry>
        </mxCell>
        <mxCell id="OFwWGgui4uXcCdhCTcHJ-8" value="" style="endArrow=none;html=1;rounded=0;strokeWidth=3;fontFamily=palatino;" parent="1" edge="1">
          <mxGeometry width="50" height="50" relative="1" as="geometry">
            <mxPoint x="300" y="1290" as="sourcePoint" />
            <mxPoint x="380" y="1290" as="targetPoint" />
          </mxGeometry>
        </mxCell>
        <mxCell id="OFwWGgui4uXcCdhCTcHJ-9" value="" style="endArrow=none;html=1;rounded=0;strokeWidth=3;fontFamily=palatino;" parent="1" edge="1">
          <mxGeometry width="50" height="50" relative="1" as="geometry">
            <mxPoint x="380" y="1290" as="sourcePoint" />
            <mxPoint x="380" y="1210" as="targetPoint" />
          </mxGeometry>
        </mxCell>
        <mxCell id="OFwWGgui4uXcCdhCTcHJ-10" value="" style="endArrow=none;html=1;rounded=0;strokeWidth=3;fontFamily=palatino;" parent="1" edge="1">
          <mxGeometry width="50" height="50" relative="1" as="geometry">
            <mxPoint x="380" y="1210" as="sourcePoint" />
            <mxPoint x="460" y="1210" as="targetPoint" />
          </mxGeometry>
        </mxCell>
        <mxCell id="OFwWGgui4uXcCdhCTcHJ-11" value="" style="endArrow=none;html=1;rounded=0;strokeWidth=3;fontFamily=palatino;" parent="1" edge="1">
          <mxGeometry width="50" height="50" relative="1" as="geometry">
            <mxPoint x="460" y="1290" as="sourcePoint" />
            <mxPoint x="460" y="1210" as="targetPoint" />
          </mxGeometry>
        </mxCell>
        <mxCell id="OFwWGgui4uXcCdhCTcHJ-12" value="" style="endArrow=none;html=1;rounded=0;strokeWidth=3;fontFamily=palatino;" parent="1" edge="1">
          <mxGeometry width="50" height="50" relative="1" as="geometry">
            <mxPoint x="460" y="1290" as="sourcePoint" />
            <mxPoint x="540" y="1290" as="targetPoint" />
          </mxGeometry>
        </mxCell>
        <mxCell id="OFwWGgui4uXcCdhCTcHJ-13" value="" style="endArrow=none;html=1;rounded=0;strokeWidth=3;fontFamily=palatino;" parent="1" edge="1">
          <mxGeometry width="50" height="50" relative="1" as="geometry">
            <mxPoint x="540" y="1290" as="sourcePoint" />
            <mxPoint x="540" y="1210" as="targetPoint" />
          </mxGeometry>
        </mxCell>
        <mxCell id="OFwWGgui4uXcCdhCTcHJ-14" value="" style="endArrow=none;html=1;rounded=0;strokeWidth=3;fontFamily=palatino;" parent="1" edge="1">
          <mxGeometry width="50" height="50" relative="1" as="geometry">
            <mxPoint x="540" y="1210" as="sourcePoint" />
            <mxPoint x="620" y="1210" as="targetPoint" />
          </mxGeometry>
        </mxCell>
        <mxCell id="OFwWGgui4uXcCdhCTcHJ-15" value="" style="endArrow=none;html=1;rounded=0;strokeWidth=3;fontFamily=palatino;" parent="1" edge="1">
          <mxGeometry width="50" height="50" relative="1" as="geometry">
            <mxPoint x="620" y="1290" as="sourcePoint" />
            <mxPoint x="620" y="1210" as="targetPoint" />
          </mxGeometry>
        </mxCell>
        <mxCell id="OFwWGgui4uXcCdhCTcHJ-16" value="" style="endArrow=none;html=1;rounded=0;strokeWidth=3;fontFamily=palatino;" parent="1" edge="1">
          <mxGeometry width="50" height="50" relative="1" as="geometry">
            <mxPoint x="620" y="1290" as="sourcePoint" />
            <mxPoint x="700" y="1290" as="targetPoint" />
          </mxGeometry>
        </mxCell>
        <mxCell id="OFwWGgui4uXcCdhCTcHJ-17" value="" style="endArrow=none;html=1;rounded=0;strokeWidth=3;fontFamily=palatino;" parent="1" edge="1">
          <mxGeometry width="50" height="50" relative="1" as="geometry">
            <mxPoint x="700" y="1290" as="sourcePoint" />
            <mxPoint x="700" y="1210" as="targetPoint" />
          </mxGeometry>
        </mxCell>
        <mxCell id="OFwWGgui4uXcCdhCTcHJ-18" value="" style="endArrow=none;html=1;rounded=0;strokeWidth=3;fontFamily=palatino;" parent="1" edge="1">
          <mxGeometry width="50" height="50" relative="1" as="geometry">
            <mxPoint x="700" y="1210" as="sourcePoint" />
            <mxPoint x="780" y="1210" as="targetPoint" />
          </mxGeometry>
        </mxCell>
        <mxCell id="OFwWGgui4uXcCdhCTcHJ-19" value="" style="endArrow=none;html=1;rounded=0;strokeWidth=3;fontFamily=palatino;" parent="1" edge="1">
          <mxGeometry width="50" height="50" relative="1" as="geometry">
            <mxPoint x="780" y="1290" as="sourcePoint" />
            <mxPoint x="780" y="1210" as="targetPoint" />
          </mxGeometry>
        </mxCell>
        <mxCell id="OFwWGgui4uXcCdhCTcHJ-20" value="" style="endArrow=none;html=1;rounded=0;strokeWidth=3;fontFamily=palatino;" parent="1" edge="1">
          <mxGeometry width="50" height="50" relative="1" as="geometry">
            <mxPoint x="780" y="1290" as="sourcePoint" />
            <mxPoint x="860" y="1290" as="targetPoint" />
          </mxGeometry>
        </mxCell>
        <mxCell id="OFwWGgui4uXcCdhCTcHJ-21" value="" style="endArrow=none;html=1;rounded=0;strokeWidth=3;fontFamily=palatino;" parent="1" edge="1">
          <mxGeometry width="50" height="50" relative="1" as="geometry">
            <mxPoint x="860" y="1290" as="sourcePoint" />
            <mxPoint x="860" y="1210" as="targetPoint" />
          </mxGeometry>
        </mxCell>
        <mxCell id="OFwWGgui4uXcCdhCTcHJ-22" value="" style="endArrow=none;html=1;rounded=0;strokeWidth=3;fontFamily=palatino;" parent="1" edge="1">
          <mxGeometry width="50" height="50" relative="1" as="geometry">
            <mxPoint x="860" y="1210" as="sourcePoint" />
            <mxPoint x="940" y="1210" as="targetPoint" />
          </mxGeometry>
        </mxCell>
        <mxCell id="OFwWGgui4uXcCdhCTcHJ-23" value="" style="endArrow=none;html=1;rounded=0;strokeWidth=3;fontFamily=palatino;" parent="1" edge="1">
          <mxGeometry width="50" height="50" relative="1" as="geometry">
            <mxPoint x="940" y="1290" as="sourcePoint" />
            <mxPoint x="940" y="1210" as="targetPoint" />
          </mxGeometry>
        </mxCell>
        <mxCell id="OFwWGgui4uXcCdhCTcHJ-24" value="" style="endArrow=none;html=1;rounded=0;strokeWidth=3;fontFamily=palatino;" parent="1" edge="1">
          <mxGeometry width="50" height="50" relative="1" as="geometry">
            <mxPoint x="940" y="1290" as="sourcePoint" />
            <mxPoint x="1020" y="1290" as="targetPoint" />
          </mxGeometry>
        </mxCell>
        <mxCell id="OFwWGgui4uXcCdhCTcHJ-25" value="" style="endArrow=none;html=1;rounded=0;strokeWidth=3;fontFamily=palatino;" parent="1" edge="1">
          <mxGeometry width="50" height="50" relative="1" as="geometry">
            <mxPoint x="1020" y="1290" as="sourcePoint" />
            <mxPoint x="1020" y="1210" as="targetPoint" />
          </mxGeometry>
        </mxCell>
        <mxCell id="OFwWGgui4uXcCdhCTcHJ-26" value="" style="endArrow=none;html=1;rounded=0;strokeWidth=3;fontFamily=palatino;" parent="1" edge="1">
          <mxGeometry width="50" height="50" relative="1" as="geometry">
            <mxPoint x="1020" y="1210" as="sourcePoint" />
            <mxPoint x="1100" y="1210" as="targetPoint" />
          </mxGeometry>
        </mxCell>
        <mxCell id="OFwWGgui4uXcCdhCTcHJ-27" value="" style="endArrow=none;html=1;rounded=0;strokeWidth=3;fontFamily=palatino;" parent="1" edge="1">
          <mxGeometry width="50" height="50" relative="1" as="geometry">
            <mxPoint x="1100" y="1290" as="sourcePoint" />
            <mxPoint x="1100" y="1210" as="targetPoint" />
          </mxGeometry>
        </mxCell>
        <mxCell id="OFwWGgui4uXcCdhCTcHJ-28" value="" style="endArrow=none;html=1;rounded=0;strokeWidth=3;fontFamily=palatino;" parent="1" edge="1">
          <mxGeometry width="50" height="50" relative="1" as="geometry">
            <mxPoint x="140" y="1410" as="sourcePoint" />
            <mxPoint x="410" y="1410" as="targetPoint" />
          </mxGeometry>
        </mxCell>
        <mxCell id="OFwWGgui4uXcCdhCTcHJ-29" value="" style="endArrow=none;html=1;rounded=0;strokeWidth=3;fontFamily=palatino;" parent="1" edge="1">
          <mxGeometry width="50" height="50" relative="1" as="geometry">
            <mxPoint x="410" y="1410" as="sourcePoint" />
            <mxPoint x="410" y="1330" as="targetPoint" />
          </mxGeometry>
        </mxCell>
        <mxCell id="OFwWGgui4uXcCdhCTcHJ-30" value="" style="endArrow=none;html=1;rounded=0;strokeWidth=3;fontFamily=palatino;" parent="1" edge="1">
          <mxGeometry width="50" height="50" relative="1" as="geometry">
            <mxPoint x="410" y="1330" as="sourcePoint" />
            <mxPoint x="1100" y="1330" as="targetPoint" />
          </mxGeometry>
        </mxCell>
        <mxCell id="OFwWGgui4uXcCdhCTcHJ-31" value="" style="endArrow=none;html=1;rounded=0;strokeWidth=3;fontFamily=palatino;" parent="1" edge="1">
          <mxGeometry width="50" height="50" relative="1" as="geometry">
            <mxPoint x="140" y="1530" as="sourcePoint" />
            <mxPoint x="540" y="1530" as="targetPoint" />
          </mxGeometry>
        </mxCell>
        <mxCell id="OFwWGgui4uXcCdhCTcHJ-32" value="" style="endArrow=none;html=1;rounded=0;strokeWidth=3;fontFamily=palatino;" parent="1" edge="1">
          <mxGeometry width="50" height="50" relative="1" as="geometry">
            <mxPoint x="540" y="1530" as="sourcePoint" />
            <mxPoint x="540" y="1450" as="targetPoint" />
          </mxGeometry>
        </mxCell>
        <mxCell id="OFwWGgui4uXcCdhCTcHJ-33" value="" style="endArrow=none;html=1;rounded=0;strokeWidth=3;fontFamily=palatino;" parent="1" edge="1">
          <mxGeometry width="50" height="50" relative="1" as="geometry">
            <mxPoint x="540" y="1450" as="sourcePoint" />
            <mxPoint x="1100" y="1450" as="targetPoint" />
          </mxGeometry>
        </mxCell>
        <mxCell id="OFwWGgui4uXcCdhCTcHJ-34" value="&lt;font style=&quot;font-size: 20px&quot;&gt;Clock&lt;/font&gt;" style="text;html=1;strokeColor=none;fillColor=none;align=center;verticalAlign=middle;whiteSpace=wrap;rounded=0;fontFamily=palatino;" parent="1" vertex="1">
          <mxGeometry x="40" y="1230" width="60" height="30" as="geometry" />
        </mxCell>
        <mxCell id="OFwWGgui4uXcCdhCTcHJ-35" value="Input" style="text;html=1;strokeColor=none;fillColor=none;align=center;verticalAlign=middle;whiteSpace=wrap;rounded=0;fontSize=20;fontFamily=palatino;" parent="1" vertex="1">
          <mxGeometry x="40" y="1350" width="60" height="30" as="geometry" />
        </mxCell>
        <mxCell id="OFwWGgui4uXcCdhCTcHJ-36" value="Output" style="text;html=1;strokeColor=none;fillColor=none;align=center;verticalAlign=middle;whiteSpace=wrap;rounded=0;fontSize=20;fontFamily=palatino;" parent="1" vertex="1">
          <mxGeometry x="40" y="1470" width="60" height="30" as="geometry" />
        </mxCell>
        <mxCell id="OFwWGgui4uXcCdhCTcHJ-37" value="" style="rounded=0;whiteSpace=wrap;html=1;fontFamily=palatino;" parent="1" vertex="1">
          <mxGeometry x="40" y="1870" width="1070" height="110" as="geometry" />
        </mxCell>
        <mxCell id="OFwWGgui4uXcCdhCTcHJ-38" value="" style="rounded=0;whiteSpace=wrap;html=1;fontFamily=palatino;" parent="1" vertex="1">
          <mxGeometry x="40" y="1750" width="1070" height="110" as="geometry" />
        </mxCell>
        <mxCell id="OFwWGgui4uXcCdhCTcHJ-39" value="" style="rounded=0;whiteSpace=wrap;html=1;strokeWidth=1;fontFamily=palatino;" parent="1" vertex="1">
          <mxGeometry x="40" y="1630" width="1070" height="110" as="geometry" />
        </mxCell>
        <mxCell id="OFwWGgui4uXcCdhCTcHJ-40" value="" style="endArrow=none;html=1;rounded=0;strokeWidth=3;fontFamily=palatino;" parent="1" edge="1">
          <mxGeometry width="50" height="50" relative="1" as="geometry">
            <mxPoint x="140" y="1730" as="sourcePoint" />
            <mxPoint x="220" y="1730" as="targetPoint" />
          </mxGeometry>
        </mxCell>
        <mxCell id="OFwWGgui4uXcCdhCTcHJ-41" value="" style="endArrow=none;html=1;rounded=0;strokeWidth=3;fontFamily=palatino;" parent="1" edge="1">
          <mxGeometry width="50" height="50" relative="1" as="geometry">
            <mxPoint x="220" y="1730" as="sourcePoint" />
            <mxPoint x="220" y="1650" as="targetPoint" />
          </mxGeometry>
        </mxCell>
        <mxCell id="OFwWGgui4uXcCdhCTcHJ-42" value="" style="endArrow=none;html=1;rounded=0;strokeWidth=3;fontFamily=palatino;" parent="1" edge="1">
          <mxGeometry width="50" height="50" relative="1" as="geometry">
            <mxPoint x="220" y="1650" as="sourcePoint" />
            <mxPoint x="300" y="1650" as="targetPoint" />
          </mxGeometry>
        </mxCell>
        <mxCell id="OFwWGgui4uXcCdhCTcHJ-43" value="" style="endArrow=none;html=1;rounded=0;strokeWidth=3;fontFamily=palatino;" parent="1" edge="1">
          <mxGeometry width="50" height="50" relative="1" as="geometry">
            <mxPoint x="300" y="1730" as="sourcePoint" />
            <mxPoint x="300" y="1650" as="targetPoint" />
          </mxGeometry>
        </mxCell>
        <mxCell id="OFwWGgui4uXcCdhCTcHJ-44" value="" style="endArrow=none;html=1;rounded=0;strokeWidth=3;fontFamily=palatino;" parent="1" edge="1">
          <mxGeometry width="50" height="50" relative="1" as="geometry">
            <mxPoint x="300" y="1730" as="sourcePoint" />
            <mxPoint x="380" y="1730" as="targetPoint" />
          </mxGeometry>
        </mxCell>
        <mxCell id="OFwWGgui4uXcCdhCTcHJ-45" value="" style="endArrow=none;html=1;rounded=0;strokeWidth=3;fontFamily=palatino;" parent="1" edge="1">
          <mxGeometry width="50" height="50" relative="1" as="geometry">
            <mxPoint x="380" y="1730" as="sourcePoint" />
            <mxPoint x="380" y="1650" as="targetPoint" />
          </mxGeometry>
        </mxCell>
        <mxCell id="OFwWGgui4uXcCdhCTcHJ-46" value="" style="endArrow=none;html=1;rounded=0;strokeWidth=3;fontFamily=palatino;" parent="1" edge="1">
          <mxGeometry width="50" height="50" relative="1" as="geometry">
            <mxPoint x="380" y="1650" as="sourcePoint" />
            <mxPoint x="460" y="1650" as="targetPoint" />
          </mxGeometry>
        </mxCell>
        <mxCell id="OFwWGgui4uXcCdhCTcHJ-47" value="" style="endArrow=none;html=1;rounded=0;strokeWidth=3;fontFamily=palatino;" parent="1" edge="1">
          <mxGeometry width="50" height="50" relative="1" as="geometry">
            <mxPoint x="460" y="1730" as="sourcePoint" />
            <mxPoint x="460" y="1650" as="targetPoint" />
          </mxGeometry>
        </mxCell>
        <mxCell id="OFwWGgui4uXcCdhCTcHJ-48" value="" style="endArrow=none;html=1;rounded=0;strokeWidth=3;fontFamily=palatino;" parent="1" edge="1">
          <mxGeometry width="50" height="50" relative="1" as="geometry">
            <mxPoint x="460" y="1730" as="sourcePoint" />
            <mxPoint x="540" y="1730" as="targetPoint" />
          </mxGeometry>
        </mxCell>
        <mxCell id="OFwWGgui4uXcCdhCTcHJ-49" value="" style="endArrow=none;html=1;rounded=0;strokeWidth=3;fontFamily=palatino;" parent="1" edge="1">
          <mxGeometry width="50" height="50" relative="1" as="geometry">
            <mxPoint x="540" y="1730" as="sourcePoint" />
            <mxPoint x="540" y="1650" as="targetPoint" />
          </mxGeometry>
        </mxCell>
        <mxCell id="OFwWGgui4uXcCdhCTcHJ-50" value="" style="endArrow=none;html=1;rounded=0;strokeWidth=3;fontFamily=palatino;" parent="1" edge="1">
          <mxGeometry width="50" height="50" relative="1" as="geometry">
            <mxPoint x="540" y="1650" as="sourcePoint" />
            <mxPoint x="620" y="1650" as="targetPoint" />
          </mxGeometry>
        </mxCell>
        <mxCell id="OFwWGgui4uXcCdhCTcHJ-51" value="" style="endArrow=none;html=1;rounded=0;strokeWidth=3;fontFamily=palatino;" parent="1" edge="1">
          <mxGeometry width="50" height="50" relative="1" as="geometry">
            <mxPoint x="620" y="1730" as="sourcePoint" />
            <mxPoint x="620" y="1650" as="targetPoint" />
          </mxGeometry>
        </mxCell>
        <mxCell id="OFwWGgui4uXcCdhCTcHJ-52" value="" style="endArrow=none;html=1;rounded=0;strokeWidth=3;fontFamily=palatino;" parent="1" edge="1">
          <mxGeometry width="50" height="50" relative="1" as="geometry">
            <mxPoint x="620" y="1730" as="sourcePoint" />
            <mxPoint x="700" y="1730" as="targetPoint" />
          </mxGeometry>
        </mxCell>
        <mxCell id="OFwWGgui4uXcCdhCTcHJ-53" value="" style="endArrow=none;html=1;rounded=0;strokeWidth=3;fontFamily=palatino;" parent="1" edge="1">
          <mxGeometry width="50" height="50" relative="1" as="geometry">
            <mxPoint x="700" y="1730" as="sourcePoint" />
            <mxPoint x="700" y="1650" as="targetPoint" />
          </mxGeometry>
        </mxCell>
        <mxCell id="OFwWGgui4uXcCdhCTcHJ-54" value="" style="endArrow=none;html=1;rounded=0;strokeWidth=3;fontFamily=palatino;" parent="1" edge="1">
          <mxGeometry width="50" height="50" relative="1" as="geometry">
            <mxPoint x="700" y="1650" as="sourcePoint" />
            <mxPoint x="780" y="1650" as="targetPoint" />
          </mxGeometry>
        </mxCell>
        <mxCell id="OFwWGgui4uXcCdhCTcHJ-55" value="" style="endArrow=none;html=1;rounded=0;strokeWidth=3;fontFamily=palatino;" parent="1" edge="1">
          <mxGeometry width="50" height="50" relative="1" as="geometry">
            <mxPoint x="780" y="1730" as="sourcePoint" />
            <mxPoint x="780" y="1650" as="targetPoint" />
          </mxGeometry>
        </mxCell>
        <mxCell id="OFwWGgui4uXcCdhCTcHJ-56" value="" style="endArrow=none;html=1;rounded=0;strokeWidth=3;fontFamily=palatino;" parent="1" edge="1">
          <mxGeometry width="50" height="50" relative="1" as="geometry">
            <mxPoint x="780" y="1730" as="sourcePoint" />
            <mxPoint x="860" y="1730" as="targetPoint" />
          </mxGeometry>
        </mxCell>
        <mxCell id="OFwWGgui4uXcCdhCTcHJ-57" value="" style="endArrow=none;html=1;rounded=0;strokeWidth=3;fontFamily=palatino;" parent="1" edge="1">
          <mxGeometry width="50" height="50" relative="1" as="geometry">
            <mxPoint x="860" y="1730" as="sourcePoint" />
            <mxPoint x="860" y="1650" as="targetPoint" />
          </mxGeometry>
        </mxCell>
        <mxCell id="OFwWGgui4uXcCdhCTcHJ-58" value="" style="endArrow=none;html=1;rounded=0;strokeWidth=3;fontFamily=palatino;" parent="1" edge="1">
          <mxGeometry width="50" height="50" relative="1" as="geometry">
            <mxPoint x="860" y="1650" as="sourcePoint" />
            <mxPoint x="940" y="1650" as="targetPoint" />
          </mxGeometry>
        </mxCell>
        <mxCell id="OFwWGgui4uXcCdhCTcHJ-59" value="" style="endArrow=none;html=1;rounded=0;strokeWidth=3;fontFamily=palatino;" parent="1" edge="1">
          <mxGeometry width="50" height="50" relative="1" as="geometry">
            <mxPoint x="940" y="1730" as="sourcePoint" />
            <mxPoint x="940" y="1650" as="targetPoint" />
          </mxGeometry>
        </mxCell>
        <mxCell id="OFwWGgui4uXcCdhCTcHJ-60" value="" style="endArrow=none;html=1;rounded=0;strokeWidth=3;fontFamily=palatino;" parent="1" edge="1">
          <mxGeometry width="50" height="50" relative="1" as="geometry">
            <mxPoint x="940" y="1730" as="sourcePoint" />
            <mxPoint x="1020" y="1730" as="targetPoint" />
          </mxGeometry>
        </mxCell>
        <mxCell id="OFwWGgui4uXcCdhCTcHJ-61" value="" style="endArrow=none;html=1;rounded=0;strokeWidth=3;fontFamily=palatino;" parent="1" edge="1">
          <mxGeometry width="50" height="50" relative="1" as="geometry">
            <mxPoint x="1020" y="1730" as="sourcePoint" />
            <mxPoint x="1020" y="1650" as="targetPoint" />
          </mxGeometry>
        </mxCell>
        <mxCell id="OFwWGgui4uXcCdhCTcHJ-62" value="" style="endArrow=none;html=1;rounded=0;strokeWidth=3;fontFamily=palatino;" parent="1" edge="1">
          <mxGeometry width="50" height="50" relative="1" as="geometry">
            <mxPoint x="1020" y="1650" as="sourcePoint" />
            <mxPoint x="1100" y="1650" as="targetPoint" />
          </mxGeometry>
        </mxCell>
        <mxCell id="OFwWGgui4uXcCdhCTcHJ-63" value="" style="endArrow=none;html=1;rounded=0;strokeWidth=3;fontFamily=palatino;" parent="1" edge="1">
          <mxGeometry width="50" height="50" relative="1" as="geometry">
            <mxPoint x="1100" y="1730" as="sourcePoint" />
            <mxPoint x="1100" y="1650" as="targetPoint" />
          </mxGeometry>
        </mxCell>
        <mxCell id="OFwWGgui4uXcCdhCTcHJ-64" value="" style="endArrow=none;html=1;rounded=0;strokeWidth=3;fontFamily=palatino;" parent="1" edge="1">
          <mxGeometry width="50" height="50" relative="1" as="geometry">
            <mxPoint x="140" y="1850" as="sourcePoint" />
            <mxPoint x="510" y="1850" as="targetPoint" />
          </mxGeometry>
        </mxCell>
        <mxCell id="OFwWGgui4uXcCdhCTcHJ-65" value="" style="endArrow=none;html=1;rounded=0;strokeWidth=3;exitX=0.439;exitY=0.909;exitDx=0;exitDy=0;exitPerimeter=0;fontFamily=palatino;" parent="1" source="OFwWGgui4uXcCdhCTcHJ-38" edge="1">
          <mxGeometry width="50" height="50" relative="1" as="geometry">
            <mxPoint x="410" y="1850" as="sourcePoint" />
            <mxPoint x="510" y="1770" as="targetPoint" />
          </mxGeometry>
        </mxCell>
        <mxCell id="OFwWGgui4uXcCdhCTcHJ-66" value="" style="endArrow=none;html=1;rounded=0;strokeWidth=3;fontFamily=palatino;" parent="1" edge="1">
          <mxGeometry width="50" height="50" relative="1" as="geometry">
            <mxPoint x="140" y="1970" as="sourcePoint" />
            <mxPoint x="540" y="1970" as="targetPoint" />
          </mxGeometry>
        </mxCell>
        <mxCell id="OFwWGgui4uXcCdhCTcHJ-67" value="" style="endArrow=none;html=1;rounded=0;strokeWidth=3;fontFamily=palatino;" parent="1" edge="1">
          <mxGeometry width="50" height="50" relative="1" as="geometry">
            <mxPoint x="540" y="1970" as="sourcePoint" />
            <mxPoint x="540" y="1890" as="targetPoint" />
          </mxGeometry>
        </mxCell>
        <mxCell id="OFwWGgui4uXcCdhCTcHJ-68" value="" style="endArrow=none;html=1;rounded=0;strokeWidth=3;fontFamily=palatino;" parent="1" edge="1">
          <mxGeometry width="50" height="50" relative="1" as="geometry">
            <mxPoint x="540" y="1890" as="sourcePoint" />
            <mxPoint x="700" y="1890" as="targetPoint" />
          </mxGeometry>
        </mxCell>
        <mxCell id="OFwWGgui4uXcCdhCTcHJ-69" value="&lt;font style=&quot;font-size: 20px&quot;&gt;Clock&lt;/font&gt;" style="text;html=1;strokeColor=none;fillColor=none;align=center;verticalAlign=middle;whiteSpace=wrap;rounded=0;fontFamily=palatino;" parent="1" vertex="1">
          <mxGeometry x="40" y="1670" width="60" height="30" as="geometry" />
        </mxCell>
        <mxCell id="OFwWGgui4uXcCdhCTcHJ-70" value="Input" style="text;html=1;strokeColor=none;fillColor=none;align=center;verticalAlign=middle;whiteSpace=wrap;rounded=0;fontSize=20;fontFamily=palatino;" parent="1" vertex="1">
          <mxGeometry x="40" y="1790" width="60" height="30" as="geometry" />
        </mxCell>
        <mxCell id="OFwWGgui4uXcCdhCTcHJ-71" value="Output" style="text;html=1;strokeColor=none;fillColor=none;align=center;verticalAlign=middle;whiteSpace=wrap;rounded=0;fontSize=20;fontFamily=palatino;" parent="1" vertex="1">
          <mxGeometry x="40" y="1910" width="60" height="30" as="geometry" />
        </mxCell>
        <mxCell id="OFwWGgui4uXcCdhCTcHJ-72" value="" style="endArrow=none;html=1;rounded=0;strokeWidth=3;entryX=0.477;entryY=0.182;entryDx=0;entryDy=0;entryPerimeter=0;fontFamily=palatino;" parent="1" target="OFwWGgui4uXcCdhCTcHJ-38" edge="1">
          <mxGeometry width="50" height="50" relative="1" as="geometry">
            <mxPoint x="510" y="1770" as="sourcePoint" />
            <mxPoint x="410" y="1690" as="targetPoint" />
          </mxGeometry>
        </mxCell>
        <mxCell id="OFwWGgui4uXcCdhCTcHJ-73" value="" style="endArrow=none;html=1;rounded=0;strokeWidth=3;exitX=0.439;exitY=0.909;exitDx=0;exitDy=0;exitPerimeter=0;fontFamily=palatino;" parent="1" edge="1">
          <mxGeometry width="50" height="50" relative="1" as="geometry">
            <mxPoint x="550" y="1849.9899999999998" as="sourcePoint" />
            <mxPoint x="550.27" y="1770" as="targetPoint" />
          </mxGeometry>
        </mxCell>
        <mxCell id="OFwWGgui4uXcCdhCTcHJ-74" value="" style="endArrow=none;html=1;rounded=0;strokeWidth=3;fontFamily=palatino;" parent="1" edge="1">
          <mxGeometry width="50" height="50" relative="1" as="geometry">
            <mxPoint x="550" y="1850" as="sourcePoint" />
            <mxPoint x="1100" y="1850" as="targetPoint" />
          </mxGeometry>
        </mxCell>
        <mxCell id="OFwWGgui4uXcCdhCTcHJ-75" value="" style="endArrow=none;html=1;rounded=0;strokeWidth=3;fontFamily=palatino;" parent="1" edge="1">
          <mxGeometry width="50" height="50" relative="1" as="geometry">
            <mxPoint x="700" y="1970" as="sourcePoint" />
            <mxPoint x="700" y="1890" as="targetPoint" />
          </mxGeometry>
        </mxCell>
        <mxCell id="OFwWGgui4uXcCdhCTcHJ-76" value="" style="endArrow=none;html=1;rounded=0;strokeWidth=3;fontFamily=palatino;" parent="1" edge="1">
          <mxGeometry width="50" height="50" relative="1" as="geometry">
            <mxPoint x="700" y="1970" as="sourcePoint" />
            <mxPoint x="1100" y="1970" as="targetPoint" />
          </mxGeometry>
        </mxCell>
        <mxCell id="OFwWGgui4uXcCdhCTcHJ-77" value="LOW" style="text;html=1;strokeColor=none;fillColor=none;align=center;verticalAlign=middle;whiteSpace=wrap;rounded=0;fontFamily=palatino;" parent="1" vertex="1">
          <mxGeometry x="90" y="1950" width="60" height="30" as="geometry" />
        </mxCell>
        <mxCell id="OFwWGgui4uXcCdhCTcHJ-78" value="HIGH" style="text;html=1;strokeColor=none;fillColor=none;align=center;verticalAlign=middle;whiteSpace=wrap;rounded=0;fontFamily=palatino;" parent="1" vertex="1">
          <mxGeometry x="90" y="1870" width="60" height="30" as="geometry" />
        </mxCell>
        <mxCell id="OFwWGgui4uXcCdhCTcHJ-79" value="LOW" style="text;html=1;strokeColor=none;fillColor=none;align=center;verticalAlign=middle;whiteSpace=wrap;rounded=0;fontFamily=palatino;" parent="1" vertex="1">
          <mxGeometry x="90" y="1830" width="60" height="30" as="geometry" />
        </mxCell>
        <mxCell id="OFwWGgui4uXcCdhCTcHJ-80" value="HIGH" style="text;html=1;strokeColor=none;fillColor=none;align=center;verticalAlign=middle;whiteSpace=wrap;rounded=0;fontFamily=palatino;" parent="1" vertex="1">
          <mxGeometry x="90" y="1750" width="60" height="30" as="geometry" />
        </mxCell>
        <mxCell id="OFwWGgui4uXcCdhCTcHJ-81" value="LOW" style="text;html=1;strokeColor=none;fillColor=none;align=center;verticalAlign=middle;whiteSpace=wrap;rounded=0;fontFamily=palatino;" parent="1" vertex="1">
          <mxGeometry x="90" y="1710" width="60" height="30" as="geometry" />
        </mxCell>
        <mxCell id="OFwWGgui4uXcCdhCTcHJ-82" value="HIGH" style="text;html=1;strokeColor=none;fillColor=none;align=center;verticalAlign=middle;whiteSpace=wrap;rounded=0;fontFamily=palatino;" parent="1" vertex="1">
          <mxGeometry x="90" y="1630" width="60" height="30" as="geometry" />
        </mxCell>
        <mxCell id="OFwWGgui4uXcCdhCTcHJ-83" value="LOW" style="text;html=1;strokeColor=none;fillColor=none;align=center;verticalAlign=middle;whiteSpace=wrap;rounded=0;fontFamily=palatino;" parent="1" vertex="1">
          <mxGeometry x="90" y="1510" width="60" height="30" as="geometry" />
        </mxCell>
        <mxCell id="OFwWGgui4uXcCdhCTcHJ-84" value="HIGH" style="text;html=1;strokeColor=none;fillColor=none;align=center;verticalAlign=middle;whiteSpace=wrap;rounded=0;fontFamily=palatino;" parent="1" vertex="1">
          <mxGeometry x="90" y="1430" width="60" height="30" as="geometry" />
        </mxCell>
        <mxCell id="OFwWGgui4uXcCdhCTcHJ-85" value="LOW" style="text;html=1;strokeColor=none;fillColor=none;align=center;verticalAlign=middle;whiteSpace=wrap;rounded=0;fontFamily=palatino;" parent="1" vertex="1">
          <mxGeometry x="90" y="1390" width="60" height="30" as="geometry" />
        </mxCell>
        <mxCell id="OFwWGgui4uXcCdhCTcHJ-86" value="HIGH" style="text;html=1;strokeColor=none;fillColor=none;align=center;verticalAlign=middle;whiteSpace=wrap;rounded=0;fontFamily=palatino;" parent="1" vertex="1">
          <mxGeometry x="90" y="1310" width="60" height="30" as="geometry" />
        </mxCell>
        <mxCell id="OFwWGgui4uXcCdhCTcHJ-87" value="LOW" style="text;html=1;strokeColor=none;fillColor=none;align=center;verticalAlign=middle;whiteSpace=wrap;rounded=0;fontFamily=palatino;" parent="1" vertex="1">
          <mxGeometry x="90" y="1270" width="60" height="30" as="geometry" />
        </mxCell>
        <mxCell id="OFwWGgui4uXcCdhCTcHJ-88" value="HIGH" style="text;html=1;strokeColor=none;fillColor=none;align=center;verticalAlign=middle;whiteSpace=wrap;rounded=0;fontFamily=palatino;" parent="1" vertex="1">
          <mxGeometry x="90" y="1190" width="60" height="30" as="geometry" />
        </mxCell>
        <mxCell id="OFwWGgui4uXcCdhCTcHJ-89" value="Rising" style="text;html=1;strokeColor=none;fillColor=none;align=center;verticalAlign=middle;whiteSpace=wrap;rounded=0;fontFamily=palatino;" parent="1" vertex="1">
          <mxGeometry x="150" y="1190" width="60" height="30" as="geometry" />
        </mxCell>
        <mxCell id="OFwWGgui4uXcCdhCTcHJ-90" value="Falling" style="text;html=1;strokeColor=none;fillColor=none;align=center;verticalAlign=middle;whiteSpace=wrap;rounded=0;fontFamily=palatino;" parent="1" vertex="1">
          <mxGeometry x="320" y="1190" width="60" height="30" as="geometry" />
        </mxCell>
        <mxCell id="OFwWGgui4uXcCdhCTcHJ-91" value="" style="endArrow=classic;html=1;rounded=0;fontFamily=palatino;" parent="1" source="OFwWGgui4uXcCdhCTcHJ-89" edge="1">
          <mxGeometry width="50" height="50" relative="1" as="geometry">
            <mxPoint x="180" y="1190" as="sourcePoint" />
            <mxPoint x="210" y="1240" as="targetPoint" />
          </mxGeometry>
        </mxCell>
        <mxCell id="OFwWGgui4uXcCdhCTcHJ-92" value="" style="endArrow=classic;html=1;rounded=0;fontFamily=palatino;" parent="1" source="OFwWGgui4uXcCdhCTcHJ-90" edge="1">
          <mxGeometry width="50" height="50" relative="1" as="geometry">
            <mxPoint x="300" y="1190" as="sourcePoint" />
            <mxPoint x="310" y="1240" as="targetPoint" />
          </mxGeometry>
        </mxCell>
        <mxCell id="uylziQgaCMkioHiLQaqj-1" value="&lt;font style=&quot;font-size: 20px&quot;&gt;Earth&lt;/font&gt;" style="ellipse;whiteSpace=wrap;html=1;aspect=fixed;" vertex="1" parent="1">
          <mxGeometry x="360" y="2800" width="240" height="240" as="geometry" />
        </mxCell>
        <mxCell id="uylziQgaCMkioHiLQaqj-4" style="rounded=0;orthogonalLoop=1;jettySize=auto;html=1;exitX=0.07;exitY=0.93;exitDx=0;exitDy=0;exitPerimeter=0;entryX=0.787;entryY=0.092;entryDx=0;entryDy=0;entryPerimeter=0;endArrow=none;endFill=0;dashed=1;" edge="1" parent="1" source="uylziQgaCMkioHiLQaqj-2" target="uylziQgaCMkioHiLQaqj-1">
          <mxGeometry relative="1" as="geometry" />
        </mxCell>
        <mxCell id="uylziQgaCMkioHiLQaqj-5" style="edgeStyle=none;rounded=0;orthogonalLoop=1;jettySize=auto;html=1;exitX=0.07;exitY=0.93;exitDx=0;exitDy=0;exitPerimeter=0;dashed=1;endArrow=none;endFill=0;entryX=0.904;entryY=0.204;entryDx=0;entryDy=0;entryPerimeter=0;" edge="1" parent="1" source="uylziQgaCMkioHiLQaqj-2" target="uylziQgaCMkioHiLQaqj-1">
          <mxGeometry relative="1" as="geometry" />
        </mxCell>
        <mxCell id="uylziQgaCMkioHiLQaqj-2" value="" style="verticalAlign=top;verticalLabelPosition=bottom;labelPosition=center;align=center;html=1;outlineConnect=0;gradientDirection=north;strokeWidth=2;shape=mxgraph.networks.satellite;" vertex="1" parent="1">
          <mxGeometry x="610" y="2730" width="60" height="60" as="geometry" />
        </mxCell>
        <mxCell id="uylziQgaCMkioHiLQaqj-7" style="edgeStyle=none;rounded=0;orthogonalLoop=1;jettySize=auto;html=1;exitX=0.07;exitY=0.93;exitDx=0;exitDy=0;exitPerimeter=0;entryX=0.5;entryY=0;entryDx=0;entryDy=0;dashed=1;endArrow=none;endFill=0;" edge="1" parent="1" source="uylziQgaCMkioHiLQaqj-3" target="uylziQgaCMkioHiLQaqj-1">
          <mxGeometry relative="1" as="geometry" />
        </mxCell>
        <mxCell id="uylziQgaCMkioHiLQaqj-8" style="edgeStyle=none;rounded=0;orthogonalLoop=1;jettySize=auto;html=1;exitX=0.07;exitY=0.93;exitDx=0;exitDy=0;exitPerimeter=0;entryX=1;entryY=0.5;entryDx=0;entryDy=0;dashed=1;endArrow=none;endFill=0;" edge="1" parent="1" source="uylziQgaCMkioHiLQaqj-3" target="uylziQgaCMkioHiLQaqj-1">
          <mxGeometry relative="1" as="geometry" />
        </mxCell>
        <mxCell id="uylziQgaCMkioHiLQaqj-3" value="" style="verticalAlign=top;verticalLabelPosition=bottom;labelPosition=center;align=center;html=1;outlineConnect=0;gradientDirection=north;strokeWidth=2;shape=mxgraph.networks.satellite;fontFamily=palatino;" vertex="1" parent="1">
          <mxGeometry x="840" y="2480" width="80" height="80" as="geometry" />
        </mxCell>
        <mxCell id="uylziQgaCMkioHiLQaqj-16" value="" style="endArrow=classic;startArrow=classic;html=1;rounded=0;fontFamily=palatino;fontColor=#000000;strokeWidth=1;edgeStyle=orthogonalEdgeStyle;curved=1;" edge="1" parent="1">
          <mxGeometry width="50" height="50" relative="1" as="geometry">
            <mxPoint x="740" y="2710" as="sourcePoint" />
            <mxPoint x="690" y="2660" as="targetPoint" />
          </mxGeometry>
        </mxCell>
        <mxCell id="uylziQgaCMkioHiLQaqj-17" value="FOV" style="edgeLabel;html=1;align=center;verticalAlign=middle;resizable=0;points=[];fontFamily=palatino;fontColor=#000000;rotation=45;" vertex="1" connectable="0" parent="uylziQgaCMkioHiLQaqj-16">
          <mxGeometry x="0.2211" y="-1" relative="1" as="geometry">
            <mxPoint x="19" y="-9" as="offset" />
          </mxGeometry>
        </mxCell>
        <mxCell id="uylziQgaCMkioHiLQaqj-20" value="" style="endArrow=none;html=1;rounded=0;fontFamily=palatino;fontColor=#000000;strokeWidth=1;" edge="1" parent="1">
          <mxGeometry width="50" height="50" relative="1" as="geometry">
            <mxPoint x="930" y="2610" as="sourcePoint" />
            <mxPoint x="950" y="2630" as="targetPoint" />
          </mxGeometry>
        </mxCell>
        <mxCell id="uylziQgaCMkioHiLQaqj-21" value="" style="endArrow=none;html=1;rounded=0;fontFamily=palatino;fontColor=#000000;strokeWidth=1;" edge="1" parent="1">
          <mxGeometry width="50" height="50" relative="1" as="geometry">
            <mxPoint x="610" y="2930" as="sourcePoint" />
            <mxPoint x="630" y="2950" as="targetPoint" />
          </mxGeometry>
        </mxCell>
        <mxCell id="uylziQgaCMkioHiLQaqj-22" value="" style="endArrow=none;html=1;rounded=0;fontFamily=palatino;fontColor=#000000;strokeWidth=1;" edge="1" parent="1">
          <mxGeometry width="50" height="50" relative="1" as="geometry">
            <mxPoint x="620" y="2940" as="sourcePoint" />
            <mxPoint x="940" y="2620" as="targetPoint" />
          </mxGeometry>
        </mxCell>
        <mxCell id="uylziQgaCMkioHiLQaqj-23" value="&lt;font style=&quot;font-size: 14px&quot;&gt;Altitude&lt;/font&gt;" style="edgeLabel;html=1;align=center;verticalAlign=middle;resizable=0;points=[];fontFamily=palatino;fontColor=#000000;rotation=-45;" vertex="1" connectable="0" parent="uylziQgaCMkioHiLQaqj-22">
          <mxGeometry x="0.1162" y="-2" relative="1" as="geometry">
            <mxPoint x="-20" y="17" as="offset" />
          </mxGeometry>
        </mxCell>
        <mxCell id="uylziQgaCMkioHiLQaqj-25" value="" style="rounded=0;whiteSpace=wrap;html=1;fontFamily=palatino;fontSize=20;fontColor=#000000;" vertex="1" parent="1">
          <mxGeometry x="960" y="2880" width="280" height="280" as="geometry" />
        </mxCell>
        <mxCell id="uylziQgaCMkioHiLQaqj-26" value="" style="ellipse;whiteSpace=wrap;html=1;aspect=fixed;fontFamily=palatino;fontSize=20;fillColor=#f5f5f5;strokeColor=#666666;fontColor=#333333;" vertex="1" parent="1">
          <mxGeometry x="1000" y="2920" width="200" height="200" as="geometry" />
        </mxCell>
        <mxCell id="uylziQgaCMkioHiLQaqj-28" value="" style="endArrow=none;html=1;rounded=0;fontFamily=palatino;fontSize=20;fontColor=#000000;strokeWidth=0;curved=1;" edge="1" parent="1">
          <mxGeometry width="50" height="50" relative="1" as="geometry">
            <mxPoint x="1060" y="2990" as="sourcePoint" />
            <mxPoint x="1110" y="2940" as="targetPoint" />
          </mxGeometry>
        </mxCell>
        <mxCell id="uylziQgaCMkioHiLQaqj-35" value="" style="rounded=0;whiteSpace=wrap;html=1;fontFamily=palatino;fontSize=20;fillColor=#dae8fc;strokeColor=#6c8ebf;" vertex="1" parent="1">
          <mxGeometry x="1040" y="2940" width="20" height="20" as="geometry" />
        </mxCell>
        <mxCell id="uylziQgaCMkioHiLQaqj-37" value="" style="rounded=0;whiteSpace=wrap;html=1;fontFamily=palatino;fontSize=20;fillColor=#ffe6cc;strokeColor=#d79b00;" vertex="1" parent="1">
          <mxGeometry x="1060" y="2940" width="20" height="20" as="geometry" />
        </mxCell>
        <mxCell id="uylziQgaCMkioHiLQaqj-38" value="" style="rounded=0;whiteSpace=wrap;html=1;fontFamily=palatino;fontSize=20;fillColor=#d5e8d4;strokeColor=#82b366;" vertex="1" parent="1">
          <mxGeometry x="1080" y="2940" width="20" height="20" as="geometry" />
        </mxCell>
        <mxCell id="uylziQgaCMkioHiLQaqj-39" value="" style="rounded=0;whiteSpace=wrap;html=1;fontFamily=palatino;fontSize=20;fillColor=#dae8fc;strokeColor=#6c8ebf;" vertex="1" parent="1">
          <mxGeometry x="1100" y="2940" width="20" height="20" as="geometry" />
        </mxCell>
        <mxCell id="uylziQgaCMkioHiLQaqj-40" value="" style="rounded=0;whiteSpace=wrap;html=1;fontFamily=palatino;fontSize=20;fillColor=#f8cecc;strokeColor=#b85450;" vertex="1" parent="1">
          <mxGeometry x="1120" y="2940" width="20" height="20" as="geometry" />
        </mxCell>
        <mxCell id="uylziQgaCMkioHiLQaqj-41" value="" style="rounded=0;whiteSpace=wrap;html=1;fontFamily=palatino;fontSize=20;fillColor=#dae8fc;strokeColor=#6c8ebf;" vertex="1" parent="1">
          <mxGeometry x="1140" y="2940" width="20" height="20" as="geometry" />
        </mxCell>
        <mxCell id="uylziQgaCMkioHiLQaqj-42" value="" style="rounded=0;whiteSpace=wrap;html=1;fontFamily=palatino;fontSize=20;fillColor=#d5e8d4;strokeColor=#82b366;" vertex="1" parent="1">
          <mxGeometry x="1020" y="2960" width="20" height="20" as="geometry" />
        </mxCell>
        <mxCell id="uylziQgaCMkioHiLQaqj-43" value="" style="rounded=0;whiteSpace=wrap;html=1;fontFamily=palatino;fontSize=20;fillColor=#f8cecc;strokeColor=#b85450;" vertex="1" parent="1">
          <mxGeometry x="1040" y="2960" width="20" height="20" as="geometry" />
        </mxCell>
        <mxCell id="uylziQgaCMkioHiLQaqj-44" value="" style="rounded=0;whiteSpace=wrap;html=1;fontFamily=palatino;fontSize=20;fillColor=#dae8fc;strokeColor=#6c8ebf;" vertex="1" parent="1">
          <mxGeometry x="1060" y="2960" width="20" height="20" as="geometry" />
        </mxCell>
        <mxCell id="uylziQgaCMkioHiLQaqj-45" value="" style="rounded=0;whiteSpace=wrap;html=1;fontFamily=palatino;fontSize=20;fillColor=#fff2cc;strokeColor=#d6b656;" vertex="1" parent="1">
          <mxGeometry x="1080" y="2960" width="20" height="20" as="geometry" />
        </mxCell>
        <mxCell id="uylziQgaCMkioHiLQaqj-46" value="" style="rounded=0;whiteSpace=wrap;html=1;fontFamily=palatino;fontSize=20;fillColor=#ffe6cc;strokeColor=#d79b00;" vertex="1" parent="1">
          <mxGeometry x="1100" y="2960" width="20" height="20" as="geometry" />
        </mxCell>
        <mxCell id="uylziQgaCMkioHiLQaqj-47" value="" style="rounded=0;whiteSpace=wrap;html=1;fontFamily=palatino;fontSize=20;fillColor=#e1d5e7;strokeColor=#9673a6;" vertex="1" parent="1">
          <mxGeometry x="1120" y="2960" width="20" height="20" as="geometry" />
        </mxCell>
        <mxCell id="uylziQgaCMkioHiLQaqj-48" value="" style="rounded=0;whiteSpace=wrap;html=1;fontFamily=palatino;fontSize=20;fillColor=#f8cecc;strokeColor=#b85450;" vertex="1" parent="1">
          <mxGeometry x="1140" y="2960" width="20" height="20" as="geometry" />
        </mxCell>
        <mxCell id="uylziQgaCMkioHiLQaqj-49" value="" style="rounded=0;whiteSpace=wrap;html=1;fontFamily=palatino;fontSize=20;fillColor=#e1d5e7;strokeColor=#9673a6;" vertex="1" parent="1">
          <mxGeometry x="1160" y="2960" width="20" height="20" as="geometry" />
        </mxCell>
        <mxCell id="uylziQgaCMkioHiLQaqj-50" value="" style="rounded=0;whiteSpace=wrap;html=1;fontFamily=palatino;fontSize=20;fillColor=#e1d5e7;strokeColor=#9673a6;" vertex="1" parent="1">
          <mxGeometry x="1020" y="2980" width="20" height="20" as="geometry" />
        </mxCell>
        <mxCell id="uylziQgaCMkioHiLQaqj-51" value="" style="rounded=0;whiteSpace=wrap;html=1;fontFamily=palatino;fontSize=20;fillColor=#ffe6cc;strokeColor=#d79b00;" vertex="1" parent="1">
          <mxGeometry x="1040" y="2980" width="20" height="20" as="geometry" />
        </mxCell>
        <mxCell id="uylziQgaCMkioHiLQaqj-52" value="" style="rounded=0;whiteSpace=wrap;html=1;fontFamily=palatino;fontSize=20;fillColor=#e1d5e7;strokeColor=#9673a6;" vertex="1" parent="1">
          <mxGeometry x="1060" y="2980" width="20" height="20" as="geometry" />
        </mxCell>
        <mxCell id="uylziQgaCMkioHiLQaqj-53" value="" style="rounded=0;whiteSpace=wrap;html=1;fontFamily=palatino;fontSize=20;fillColor=#d5e8d4;strokeColor=#82b366;" vertex="1" parent="1">
          <mxGeometry x="1080" y="2980" width="20" height="20" as="geometry" />
        </mxCell>
        <mxCell id="uylziQgaCMkioHiLQaqj-54" value="" style="rounded=0;whiteSpace=wrap;html=1;fontFamily=palatino;fontSize=20;fillColor=#fff2cc;strokeColor=#d6b656;" vertex="1" parent="1">
          <mxGeometry x="1100" y="2980" width="20" height="20" as="geometry" />
        </mxCell>
        <mxCell id="uylziQgaCMkioHiLQaqj-55" value="" style="rounded=0;whiteSpace=wrap;html=1;fontFamily=palatino;fontSize=20;fillColor=#ffe6cc;strokeColor=#d79b00;" vertex="1" parent="1">
          <mxGeometry x="1120" y="2980" width="20" height="20" as="geometry" />
        </mxCell>
        <mxCell id="uylziQgaCMkioHiLQaqj-56" value="" style="rounded=0;whiteSpace=wrap;html=1;fontFamily=palatino;fontSize=20;fillColor=#dae8fc;strokeColor=#6c8ebf;" vertex="1" parent="1">
          <mxGeometry x="1140" y="2980" width="20" height="20" as="geometry" />
        </mxCell>
        <mxCell id="uylziQgaCMkioHiLQaqj-57" value="" style="rounded=0;whiteSpace=wrap;html=1;fontFamily=palatino;fontSize=20;fillColor=#d5e8d4;strokeColor=#82b366;" vertex="1" parent="1">
          <mxGeometry x="1160" y="2980" width="20" height="20" as="geometry" />
        </mxCell>
        <mxCell id="uylziQgaCMkioHiLQaqj-58" value="" style="rounded=0;whiteSpace=wrap;html=1;fontFamily=palatino;fontSize=20;fillColor=#e1d5e7;strokeColor=#9673a6;" vertex="1" parent="1">
          <mxGeometry x="1140" y="3000" width="20" height="20" as="geometry" />
        </mxCell>
        <mxCell id="uylziQgaCMkioHiLQaqj-59" value="" style="rounded=0;whiteSpace=wrap;html=1;fontFamily=palatino;fontSize=20;fillColor=#ffe6cc;strokeColor=#d79b00;" vertex="1" parent="1">
          <mxGeometry x="1160" y="3000" width="20" height="20" as="geometry" />
        </mxCell>
        <mxCell id="uylziQgaCMkioHiLQaqj-60" value="" style="rounded=0;whiteSpace=wrap;html=1;fontFamily=palatino;fontSize=20;fillColor=#f8cecc;strokeColor=#b85450;" vertex="1" parent="1">
          <mxGeometry x="1100" y="3000" width="20" height="20" as="geometry" />
        </mxCell>
        <mxCell id="uylziQgaCMkioHiLQaqj-61" value="" style="rounded=0;whiteSpace=wrap;html=1;fontFamily=palatino;fontSize=20;fillColor=#d5e8d4;strokeColor=#82b366;" vertex="1" parent="1">
          <mxGeometry x="1120" y="3000" width="20" height="20" as="geometry" />
        </mxCell>
        <mxCell id="uylziQgaCMkioHiLQaqj-62" value="" style="rounded=0;whiteSpace=wrap;html=1;fontFamily=palatino;fontSize=20;fillColor=#dae8fc;strokeColor=#6c8ebf;" vertex="1" parent="1">
          <mxGeometry x="1060" y="3000" width="20" height="20" as="geometry" />
        </mxCell>
        <mxCell id="uylziQgaCMkioHiLQaqj-63" value="" style="rounded=0;whiteSpace=wrap;html=1;fontFamily=palatino;fontSize=20;fillColor=#ffe6cc;strokeColor=#d79b00;" vertex="1" parent="1">
          <mxGeometry x="1080" y="3000" width="20" height="20" as="geometry" />
        </mxCell>
        <mxCell id="uylziQgaCMkioHiLQaqj-64" value="" style="rounded=0;whiteSpace=wrap;html=1;fontFamily=palatino;fontSize=20;fillColor=#fff2cc;strokeColor=#d6b656;" vertex="1" parent="1">
          <mxGeometry x="1020" y="3000" width="20" height="20" as="geometry" />
        </mxCell>
        <mxCell id="uylziQgaCMkioHiLQaqj-65" value="" style="rounded=0;whiteSpace=wrap;html=1;fontFamily=palatino;fontSize=20;fillColor=#f8cecc;strokeColor=#b85450;" vertex="1" parent="1">
          <mxGeometry x="1040" y="3000" width="20" height="20" as="geometry" />
        </mxCell>
        <mxCell id="uylziQgaCMkioHiLQaqj-132" value="" style="rounded=0;whiteSpace=wrap;html=1;fontFamily=palatino;fontSize=20;fillColor=#f8cecc;strokeColor=#b85450;" vertex="1" parent="1">
          <mxGeometry x="1020" y="3020" width="20" height="20" as="geometry" />
        </mxCell>
        <mxCell id="uylziQgaCMkioHiLQaqj-133" value="" style="rounded=0;whiteSpace=wrap;html=1;fontFamily=palatino;fontSize=20;fillColor=#e1d5e7;strokeColor=#9673a6;" vertex="1" parent="1">
          <mxGeometry x="1040" y="3020" width="20" height="20" as="geometry" />
        </mxCell>
        <mxCell id="uylziQgaCMkioHiLQaqj-134" value="" style="rounded=0;whiteSpace=wrap;html=1;fontFamily=palatino;fontSize=20;fillColor=#ffe6cc;strokeColor=#d79b00;" vertex="1" parent="1">
          <mxGeometry x="1060" y="3020" width="20" height="20" as="geometry" />
        </mxCell>
        <mxCell id="uylziQgaCMkioHiLQaqj-135" value="" style="rounded=0;whiteSpace=wrap;html=1;fontFamily=palatino;fontSize=20;fillColor=#f8cecc;strokeColor=#b85450;" vertex="1" parent="1">
          <mxGeometry x="1080" y="3020" width="20" height="20" as="geometry" />
        </mxCell>
        <mxCell id="uylziQgaCMkioHiLQaqj-136" value="" style="rounded=0;whiteSpace=wrap;html=1;fontFamily=palatino;fontSize=20;fillColor=#dae8fc;strokeColor=#6c8ebf;" vertex="1" parent="1">
          <mxGeometry x="1100" y="3020" width="20" height="20" as="geometry" />
        </mxCell>
        <mxCell id="uylziQgaCMkioHiLQaqj-137" value="" style="rounded=0;whiteSpace=wrap;html=1;fontFamily=palatino;fontSize=20;fillColor=#e1d5e7;strokeColor=#9673a6;" vertex="1" parent="1">
          <mxGeometry x="1120" y="3020" width="20" height="20" as="geometry" />
        </mxCell>
        <mxCell id="uylziQgaCMkioHiLQaqj-138" value="" style="rounded=0;whiteSpace=wrap;html=1;fontFamily=palatino;fontSize=20;fillColor=#ffe6cc;strokeColor=#d79b00;" vertex="1" parent="1">
          <mxGeometry x="1140" y="3020" width="20" height="20" as="geometry" />
        </mxCell>
        <mxCell id="uylziQgaCMkioHiLQaqj-139" value="" style="rounded=0;whiteSpace=wrap;html=1;fontFamily=palatino;fontSize=20;fillColor=#f8cecc;strokeColor=#b85450;" vertex="1" parent="1">
          <mxGeometry x="1160" y="3020" width="20" height="20" as="geometry" />
        </mxCell>
        <mxCell id="uylziQgaCMkioHiLQaqj-140" value="" style="rounded=0;whiteSpace=wrap;html=1;fontFamily=palatino;fontSize=20;fillColor=#dae8fc;strokeColor=#6c8ebf;" vertex="1" parent="1">
          <mxGeometry x="1020" y="3040" width="20" height="20" as="geometry" />
        </mxCell>
        <mxCell id="uylziQgaCMkioHiLQaqj-141" value="" style="rounded=0;whiteSpace=wrap;html=1;fontFamily=palatino;fontSize=20;fillColor=#d5e8d4;strokeColor=#82b366;" vertex="1" parent="1">
          <mxGeometry x="1040" y="3040" width="20" height="20" as="geometry" />
        </mxCell>
        <mxCell id="uylziQgaCMkioHiLQaqj-142" value="" style="rounded=0;whiteSpace=wrap;html=1;fontFamily=palatino;fontSize=20;fillColor=#dae8fc;strokeColor=#6c8ebf;" vertex="1" parent="1">
          <mxGeometry x="1060" y="3040" width="20" height="20" as="geometry" />
        </mxCell>
        <mxCell id="uylziQgaCMkioHiLQaqj-143" value="" style="rounded=0;whiteSpace=wrap;html=1;fontFamily=palatino;fontSize=20;fillColor=#e1d5e7;strokeColor=#9673a6;" vertex="1" parent="1">
          <mxGeometry x="1080" y="3040" width="20" height="20" as="geometry" />
        </mxCell>
        <mxCell id="uylziQgaCMkioHiLQaqj-144" value="" style="rounded=0;whiteSpace=wrap;html=1;fontFamily=palatino;fontSize=20;fillColor=#d5e8d4;strokeColor=#82b366;" vertex="1" parent="1">
          <mxGeometry x="1100" y="3040" width="20" height="20" as="geometry" />
        </mxCell>
        <mxCell id="uylziQgaCMkioHiLQaqj-145" value="" style="rounded=0;whiteSpace=wrap;html=1;fontFamily=palatino;fontSize=20;fillColor=#fff2cc;strokeColor=#d6b656;" vertex="1" parent="1">
          <mxGeometry x="1120" y="3040" width="20" height="20" as="geometry" />
        </mxCell>
        <mxCell id="uylziQgaCMkioHiLQaqj-146" value="" style="rounded=0;whiteSpace=wrap;html=1;fontFamily=palatino;fontSize=20;fillColor=#dae8fc;strokeColor=#6c8ebf;" vertex="1" parent="1">
          <mxGeometry x="1140" y="3040" width="20" height="20" as="geometry" />
        </mxCell>
        <mxCell id="uylziQgaCMkioHiLQaqj-147" value="" style="rounded=0;whiteSpace=wrap;html=1;fontFamily=palatino;fontSize=20;fillColor=#fff2cc;strokeColor=#d6b656;" vertex="1" parent="1">
          <mxGeometry x="1160" y="3040" width="20" height="20" as="geometry" />
        </mxCell>
        <mxCell id="uylziQgaCMkioHiLQaqj-148" value="" style="rounded=0;whiteSpace=wrap;html=1;fontFamily=palatino;fontSize=20;fillColor=#f8cecc;strokeColor=#b85450;" vertex="1" parent="1">
          <mxGeometry x="1140" y="3060" width="20" height="20" as="geometry" />
        </mxCell>
        <mxCell id="uylziQgaCMkioHiLQaqj-149" value="" style="rounded=0;whiteSpace=wrap;html=1;fontFamily=palatino;fontSize=20;fillColor=#d5e8d4;strokeColor=#82b366;" vertex="1" parent="1">
          <mxGeometry x="1160" y="3060" width="20" height="20" as="geometry" />
        </mxCell>
        <mxCell id="uylziQgaCMkioHiLQaqj-150" value="" style="rounded=0;whiteSpace=wrap;html=1;fontFamily=palatino;fontSize=20;fillColor=#f8cecc;strokeColor=#b85450;" vertex="1" parent="1">
          <mxGeometry x="1100" y="3060" width="20" height="20" as="geometry" />
        </mxCell>
        <mxCell id="uylziQgaCMkioHiLQaqj-151" value="" style="rounded=0;whiteSpace=wrap;html=1;fontFamily=palatino;fontSize=20;fillColor=#dae8fc;strokeColor=#6c8ebf;" vertex="1" parent="1">
          <mxGeometry x="1120" y="3060" width="20" height="20" as="geometry" />
        </mxCell>
        <mxCell id="uylziQgaCMkioHiLQaqj-152" value="" style="rounded=0;whiteSpace=wrap;html=1;fontFamily=palatino;fontSize=20;fillColor=#fff2cc;strokeColor=#d6b656;" vertex="1" parent="1">
          <mxGeometry x="1060" y="3060" width="20" height="20" as="geometry" />
        </mxCell>
        <mxCell id="uylziQgaCMkioHiLQaqj-153" value="" style="rounded=0;whiteSpace=wrap;html=1;fontFamily=palatino;fontSize=20;fillColor=#ffe6cc;strokeColor=#d79b00;" vertex="1" parent="1">
          <mxGeometry x="1080" y="3060" width="20" height="20" as="geometry" />
        </mxCell>
        <mxCell id="uylziQgaCMkioHiLQaqj-154" value="" style="rounded=0;whiteSpace=wrap;html=1;fontFamily=palatino;fontSize=20;fillColor=#fff2cc;strokeColor=#d6b656;" vertex="1" parent="1">
          <mxGeometry x="1020" y="3060" width="20" height="20" as="geometry" />
        </mxCell>
        <mxCell id="uylziQgaCMkioHiLQaqj-155" value="" style="rounded=0;whiteSpace=wrap;html=1;fontFamily=palatino;fontSize=20;fillColor=#dae8fc;strokeColor=#6c8ebf;" vertex="1" parent="1">
          <mxGeometry x="1040" y="3060" width="20" height="20" as="geometry" />
        </mxCell>
        <mxCell id="uylziQgaCMkioHiLQaqj-156" value="" style="rounded=0;whiteSpace=wrap;html=1;fontFamily=palatino;fontSize=20;fillColor=#e1d5e7;strokeColor=#9673a6;" vertex="1" parent="1">
          <mxGeometry x="1140" y="3080" width="20" height="20" as="geometry" />
        </mxCell>
        <mxCell id="uylziQgaCMkioHiLQaqj-157" value="" style="rounded=0;whiteSpace=wrap;html=1;fontFamily=palatino;fontSize=20;fillColor=#fff2cc;strokeColor=#d6b656;" vertex="1" parent="1">
          <mxGeometry x="1100" y="3080" width="20" height="20" as="geometry" />
        </mxCell>
        <mxCell id="uylziQgaCMkioHiLQaqj-158" value="" style="rounded=0;whiteSpace=wrap;html=1;fontFamily=palatino;fontSize=20;fillColor=#d5e8d4;strokeColor=#82b366;" vertex="1" parent="1">
          <mxGeometry x="1120" y="3080" width="20" height="20" as="geometry" />
        </mxCell>
        <mxCell id="uylziQgaCMkioHiLQaqj-159" value="" style="rounded=0;whiteSpace=wrap;html=1;fontFamily=palatino;fontSize=20;fillColor=#f8cecc;strokeColor=#b85450;" vertex="1" parent="1">
          <mxGeometry x="1060" y="3080" width="20" height="20" as="geometry" />
        </mxCell>
        <mxCell id="uylziQgaCMkioHiLQaqj-160" value="" style="rounded=0;whiteSpace=wrap;html=1;fontFamily=palatino;fontSize=20;fillColor=#dae8fc;strokeColor=#6c8ebf;" vertex="1" parent="1">
          <mxGeometry x="1080" y="3080" width="20" height="20" as="geometry" />
        </mxCell>
        <mxCell id="uylziQgaCMkioHiLQaqj-161" value="" style="rounded=0;whiteSpace=wrap;html=1;fontFamily=palatino;fontSize=20;fillColor=#e1d5e7;strokeColor=#9673a6;" vertex="1" parent="1">
          <mxGeometry x="1040" y="3080" width="20" height="20" as="geometry" />
        </mxCell>
        <mxCell id="uylziQgaCMkioHiLQaqj-164" value="" style="endArrow=none;dashed=1;html=1;rounded=0;fontFamily=palatino;fontSize=20;fontColor=#000000;strokeWidth=1;curved=1;exitX=0;exitY=0.5;exitDx=0;exitDy=0;" edge="1" parent="1" source="uylziQgaCMkioHiLQaqj-26">
          <mxGeometry width="50" height="50" relative="1" as="geometry">
            <mxPoint x="970" y="3020" as="sourcePoint" />
            <mxPoint x="1000" y="2840" as="targetPoint" />
          </mxGeometry>
        </mxCell>
        <mxCell id="uylziQgaCMkioHiLQaqj-165" value="" style="endArrow=none;dashed=1;html=1;rounded=0;fontFamily=palatino;fontSize=20;fontColor=#000000;strokeWidth=1;curved=1;exitX=0;exitY=0.5;exitDx=0;exitDy=0;" edge="1" parent="1">
          <mxGeometry width="50" height="50" relative="1" as="geometry">
            <mxPoint x="1200" y="3020" as="sourcePoint" />
            <mxPoint x="1200" y="2840" as="targetPoint" />
          </mxGeometry>
        </mxCell>
        <mxCell id="uylziQgaCMkioHiLQaqj-166" value="FOV" style="endArrow=classic;startArrow=classic;html=1;rounded=0;fontFamily=palatino;fontSize=20;fontColor=#000000;strokeWidth=1;curved=1;" edge="1" parent="1">
          <mxGeometry width="50" height="50" relative="1" as="geometry">
            <mxPoint x="1000" y="2840" as="sourcePoint" />
            <mxPoint x="1200" y="2840" as="targetPoint" />
          </mxGeometry>
        </mxCell>
        <mxCell id="uylziQgaCMkioHiLQaqj-168" value="" style="endArrow=none;dashed=1;html=1;rounded=0;fontFamily=palatino;fontSize=20;fontColor=#000000;strokeWidth=1;curved=1;entryX=0;entryY=1;entryDx=0;entryDy=0;" edge="1" parent="1" target="uylziQgaCMkioHiLQaqj-159">
          <mxGeometry width="50" height="50" relative="1" as="geometry">
            <mxPoint x="1060" y="3200" as="sourcePoint" />
            <mxPoint x="1080" y="3200" as="targetPoint" />
          </mxGeometry>
        </mxCell>
        <mxCell id="uylziQgaCMkioHiLQaqj-169" value="" style="endArrow=none;dashed=1;html=1;rounded=0;fontFamily=palatino;fontSize=20;fontColor=#000000;strokeWidth=1;curved=1;entryX=1;entryY=1;entryDx=0;entryDy=0;" edge="1" parent="1" target="uylziQgaCMkioHiLQaqj-159">
          <mxGeometry width="50" height="50" relative="1" as="geometry">
            <mxPoint x="1080" y="3200" as="sourcePoint" />
            <mxPoint x="1150" y="3190" as="targetPoint" />
          </mxGeometry>
        </mxCell>
        <mxCell id="uylziQgaCMkioHiLQaqj-170" value="IFOV" style="endArrow=classic;startArrow=classic;html=1;rounded=0;fontFamily=palatino;fontSize=20;fontColor=#000000;strokeWidth=1;curved=1;" edge="1" parent="1">
          <mxGeometry y="-20" width="50" height="50" relative="1" as="geometry">
            <mxPoint x="1060" y="3200" as="sourcePoint" />
            <mxPoint x="1080" y="3200" as="targetPoint" />
            <mxPoint as="offset" />
          </mxGeometry>
        </mxCell>
        <mxCell id="uylziQgaCMkioHiLQaqj-178" value="" style="endArrow=classic;startArrow=classic;html=1;rounded=0;fontFamily=palatino;fontSize=20;fontColor=#000000;strokeWidth=1;entryX=0.903;entryY=0.206;entryDx=0;entryDy=0;entryPerimeter=0;exitX=0.79;exitY=0.094;exitDx=0;exitDy=0;exitPerimeter=0;edgeStyle=orthogonalEdgeStyle;curved=1;" edge="1" parent="1" source="uylziQgaCMkioHiLQaqj-1" target="uylziQgaCMkioHiLQaqj-1">
          <mxGeometry width="50" height="50" relative="1" as="geometry">
            <mxPoint x="520" y="2890" as="sourcePoint" />
            <mxPoint x="570" y="2840" as="targetPoint" />
            <Array as="points">
              <mxPoint x="550" y="2849" />
            </Array>
          </mxGeometry>
        </mxCell>
        <mxCell id="uylziQgaCMkioHiLQaqj-179" value="FOV" style="edgeLabel;html=1;align=center;verticalAlign=middle;resizable=0;points=[];fontSize=20;fontFamily=palatino;fontColor=#000000;rotation=45;" vertex="1" connectable="0" parent="uylziQgaCMkioHiLQaqj-178">
          <mxGeometry x="0.2271" y="4" relative="1" as="geometry">
            <mxPoint x="-16" y="5" as="offset" />
          </mxGeometry>
        </mxCell>
      </root>
    </mxGraphModel>
  </diagram>
</mxfile>
